<svg xmlns="http://www.w3.org/2000/svg" xmlns:xlink="http://www.w3.org/1999/xlink" version="1.1" width="256" height="256" viewBox="0 0 256 256" xml:space="preserve">

<defs>
</defs>
<g style="stroke: none; stroke-width: 0; stroke-dasharray: none; stroke-linecap: butt; stroke-linejoin: miter; stroke-miterlimit: 10; fill: none; fill-rule: nonzero; opacity: 1;" transform="translate(1.4065934065934016 1.4065934065934016) scale(2.81 2.81)" >
	<path d="M 62.719 67.774 H 29.487 v -4 h 29.231 V 20.841 c 0 -1.384 -1.126 -2.51 -2.511 -2.51 H 6.51 c -1.384 0 -2.51 1.126 -2.51 2.51 v 40.424 c 0 1.384 1.126 2.51 2.51 2.51 h 7.188 v 4 H 6.51 c -3.59 0 -6.51 -2.92 -6.51 -6.51 V 20.841 c 0 -3.59 2.92 -6.51 6.51 -6.51 h 49.698 c 3.59 0 6.511 2.92 6.511 6.51 V 67.774 z" style="stroke: none; stroke-width: 1; stroke-dasharray: none; stroke-linecap: butt; stroke-linejoin: miter; stroke-miterlimit: 10; fill: rgb(0,0,0); fill-rule: nonzero; opacity: 1;" transform=" matrix(1 0 0 1 0 0) " stroke-linecap="round" />
	<path d="M 82.972 67.774 h -1.419 v -4 h 1.419 c 1.67 0 3.028 -1.358 3.028 -3.028 V 38.261 c 0 -2.78 -1.248 -5.367 -3.424 -7.097 l -6.437 -5.121 c -1.599 -1.271 -3.604 -1.971 -5.646 -1.971 h -7.775 v 39.702 h 3.045 v 4 h -7.045 V 20.072 h 11.775 c 2.942 0 5.832 1.009 8.136 2.84 l 6.437 5.121 C 88.202 30.526 90 34.254 90 38.261 v 22.485 C 90 64.621 86.847 67.774 82.972 67.774 z" style="stroke: none; stroke-width: 1; stroke-dasharray: none; stroke-linecap: butt; stroke-linejoin: miter; stroke-miterlimit: 10; fill: rgb(0,0,0); fill-rule: nonzero; opacity: 1;" transform=" matrix(1 0 0 1 0 0) " stroke-linecap="round" />
	<path d="M 88 46.194 H 72.485 c -2.708 0 -4.911 -2.203 -4.911 -4.912 v -19.21 h 4 v 19.21 c 0 0.502 0.409 0.912 0.911 0.912 H 88 V 46.194 z" style="stroke: none; stroke-width: 1; stroke-dasharray: none; stroke-linecap: butt; stroke-linejoin: miter; stroke-miterlimit: 10; fill: rgb(0,0,0); fill-rule: nonzero; opacity: 1;" transform=" matrix(1 0 0 1 0 0) " stroke-linecap="round" />
	<path d="M 21.593 75.669 c -5.456 0 -9.894 -4.438 -9.894 -9.895 c 0 -5.455 4.438 -9.894 9.894 -9.894 c 5.456 0 9.895 4.438 9.895 9.894 C 31.487 71.23 27.049 75.669 21.593 75.669 z M 21.593 59.881 c -3.25 0 -5.894 2.644 -5.894 5.894 s 2.644 5.895 5.894 5.895 c 3.25 0 5.895 -2.645 5.895 -5.895 S 24.843 59.881 21.593 59.881 z" style="stroke: none; stroke-width: 1; stroke-dasharray: none; stroke-linecap: butt; stroke-linejoin: miter; stroke-miterlimit: 10; fill: rgb(0,0,0); fill-rule: nonzero; opacity: 1;" transform=" matrix(1 0 0 1 0 0) " stroke-linecap="round" />
	<path d="M 73.658 75.669 c -5.456 0 -9.895 -4.438 -9.895 -9.895 c 0 -5.455 4.438 -9.894 9.895 -9.894 s 9.895 4.438 9.895 9.894 C 83.553 71.23 79.114 75.669 73.658 75.669 z M 73.658 59.881 c -3.25 0 -5.895 2.644 -5.895 5.894 s 2.645 5.895 5.895 5.895 s 5.895 -2.645 5.895 -5.895 S 76.908 59.881 73.658 59.881 z" style="stroke: none; stroke-width: 1; stroke-dasharray: none; stroke-linecap: butt; stroke-linejoin: miter; stroke-miterlimit: 10; fill: rgb(0,0,0); fill-rule: nonzero; opacity: 1;" transform=" matrix(1 0 0 1 0 0) " stroke-linecap="round" />
	<rect x="16.26" y="48.87" rx="0" ry="0" width="44.46" height="4" style="stroke: none; stroke-width: 1; stroke-dasharray: none; stroke-linecap: butt; stroke-linejoin: miter; stroke-miterlimit: 10; fill: rgb(0,0,0); fill-rule: nonzero; opacity: 1;" transform=" matrix(1 0 0 1 0 0) "/>
	<rect x="77.41" y="48.87" rx="0" ry="0" width="10.59" height="4" style="stroke: none; stroke-width: 1; stroke-dasharray: none; stroke-linecap: butt; stroke-linejoin: miter; stroke-miterlimit: 10; fill: rgb(0,0,0); fill-rule: nonzero; opacity: 1;" transform=" matrix(1 0 0 1 0 0) "/>
	<rect x="2" y="48.87" rx="0" ry="0" width="6.45" height="4" style="stroke: none; stroke-width: 1; stroke-dasharray: none; stroke-linecap: butt; stroke-linejoin: miter; stroke-miterlimit: 10; fill: rgb(0,0,0); fill-rule: nonzero; opacity: 1;" transform=" matrix(1 0 0 1 0 0) "/>
	<circle cx="21.589" cy="65.729" r="2.049" style="stroke: none; stroke-width: 1; stroke-dasharray: none; stroke-linecap: butt; stroke-linejoin: miter; stroke-miterlimit: 10; fill: rgb(0,0,0); fill-rule: nonzero; opacity: 1;" transform="  matrix(1 0 0 1 0 0) "/>
	<circle cx="73.659" cy="65.779" r="2.049" style="stroke: none; stroke-width: 1; stroke-dasharray: none; stroke-linecap: butt; stroke-linejoin: miter; stroke-miterlimit: 10; fill: rgb(0,0,0); fill-rule: nonzero; opacity: 1;" transform="  matrix(1 0 0 1 0 0) "/>
	<path d="M 11.783 31.041 h -4 v -4.93 c 0 -2.278 1.853 -4.131 4.13 -4.131 h 5.007 v 4 h -5.007 c -0.072 0 -0.13 0.059 -0.13 0.131 V 31.041 z" style="stroke: none; stroke-width: 1; stroke-dasharray: none; stroke-linecap: butt; stroke-linejoin: miter; stroke-miterlimit: 10; fill: rgb(0,0,0); fill-rule: nonzero; opacity: 1;" transform=" matrix(1 0 0 1 0 0) " stroke-linecap="round" />
</g>
</svg>